<svg width="19" height="19" viewBox="0 0 19 19" xmlns="http://www.w3.org/2000/svg">
<g clip-path="url(#clip0_2655:373240)">
<path d="M9.91699 14.9758C9.91831 13.7525 10.4049 12.5797 11.2699 11.7147C12.1349 10.8497 13.3077 10.3632 14.531 10.3618C15.2362 10.3664 15.9307 10.5345 16.56 10.8528L17.377 10.0358C17.456 9.95716 17.5186 9.86365 17.5614 9.76069C17.6041 9.65773 17.6262 9.54734 17.6262 9.43585C17.6262 9.32436 17.6041 9.21397 17.5614 9.11101C17.5186 9.00805 17.456 8.91454 17.377 8.83585L9.58699 1.04685C9.50823 0.967993 9.4147 0.905435 9.31175 0.862753C9.2088 0.820071 9.09844 0.798101 8.98699 0.798101C8.87554 0.798101 8.76518 0.820071 8.66223 0.862753C8.55928 0.905435 8.46575 0.967993 8.38699 1.04685L0.59799 8.83785C0.519015 8.91654 0.456352 9.01005 0.413594 9.11301C0.370837 9.21597 0.348827 9.32636 0.348827 9.43785C0.348827 9.54934 0.370837 9.65973 0.413594 9.76269C0.456352 9.86565 0.519015 9.95916 0.59799 10.0378L8.38799 17.8278C8.46675 17.9067 8.56028 17.9693 8.66323 18.0119C8.76618 18.0546 8.87654 18.0766 8.98799 18.0766C9.09944 18.0766 9.2098 18.0546 9.31275 18.0119C9.4157 17.9693 9.50923 17.9067 9.58799 17.8278L10.409 17.0068C10.09 16.3771 9.92156 15.6818 9.91699 14.9758Z" fill="url(#825d8bf8-b58d-4b06-919f-817b9fde302c)"/>
</g>
<path fill-rule="evenodd" clip-rule="evenodd" d="M18.2969 14.9984C18.2969 17.0963 16.5962 18.7969 14.4984 18.7969C12.4006 18.7969 10.7 17.0963 10.7 14.9984C10.7 12.9006 12.4006 11.2 14.4984 11.2C16.5962 11.2 18.2969 12.9006 18.2969 14.9984ZM13.4 17.1875L16.525 15L13.4 12.8125V17.1875Z" fill="#5E9624"/>
<defs>
<linearGradient id="825d8bf8-b58d-4b06-919f-817b9fde302c" x1="8.98799" y1="0.718849" x2="8.98799" y2="17.9938" gradientUnits="userSpaceOnUse">
<stop stop-color="#B4EC36"/>
<stop offset="1" stop-color="#76BC2D"/>
</linearGradient>
<clipPath id="clip0_2655:373240">
<rect width="18" height="18" fill="#fff" transform="translate(0.349991 0.796848)"/>
</clipPath>
</defs>
</svg>
