<svg width="19" height="19" viewBox="0 0 19 19" xmlns="http://www.w3.org/2000/svg">
<g clip-path="url(#clip0_2642:373294)">
<path d="M9.91699 14.9759C9.91831 13.7526 10.4049 12.5798 11.2699 11.7147C12.1349 10.8497 13.3077 10.3632 14.531 10.3619C15.2362 10.3664 15.9307 10.5345 16.56 10.8529L17.377 10.0359C17.456 9.95718 17.5186 9.86367 17.5614 9.76071C17.6041 9.65775 17.6262 9.54736 17.6262 9.43587C17.6262 9.32439 17.6041 9.21399 17.5614 9.11103C17.5186 9.00807 17.456 8.91456 17.377 8.83587L9.58699 1.04687C9.50823 0.968017 9.4147 0.90546 9.31175 0.862778C9.2088 0.820095 9.09844 0.798126 8.98699 0.798126C8.87554 0.798126 8.76518 0.820095 8.66223 0.862778C8.55928 0.90546 8.46575 0.968017 8.38699 1.04687L0.59799 8.83787C0.519015 8.91656 0.456352 9.01007 0.413594 9.11303C0.370837 9.216 0.348827 9.32639 0.348827 9.43787C0.348827 9.54936 0.370837 9.65975 0.413594 9.76271C0.456352 9.86567 0.519015 9.95918 0.59799 10.0379L8.38799 17.8279C8.46675 17.9067 8.56028 17.9693 8.66323 18.012C8.76618 18.0547 8.87654 18.0766 8.98799 18.0766C9.09944 18.0766 9.2098 18.0547 9.31275 18.012C9.4157 17.9693 9.50923 17.9067 9.58799 17.8279L10.409 17.0069C10.09 16.3771 9.92156 15.6818 9.91699 14.9759Z" fill="url(#15907f95-60c9-4978-82d6-920fcaecf836)"/>
<path fill-rule="evenodd" clip-rule="evenodd" d="M18.3089 14.9964C18.3089 17.0943 16.6082 18.7949 14.5104 18.7949C12.4126 18.7949 10.712 17.0943 10.712 14.9964C10.712 12.8986 12.4126 11.198 14.5104 11.198C16.6082 11.198 18.3089 12.8986 18.3089 14.9964ZM16.3067 13.2001H12.7141V16.7927H16.3067V13.2001Z" fill="#767676"/>
</g>
<defs>
<linearGradient id="15907f95-60c9-4978-82d6-920fcaecf836" x1="8.98799" y1="0.798873" x2="8.98799" y2="18.0739" gradientUnits="userSpaceOnUse">
<stop stop-color="#B3B3B3"/>
<stop offset="1" stop-color="#999999"/>
</linearGradient>
<clipPath id="clip0_2642:373294">
<rect width="18" height="18" fill="#fff" transform="translate(0.349991 0.796875)"/>
</clipPath>
</defs>
</svg>
