<svg xmlns="http://www.w3.org/2000/svg" width="24" height="24" viewBox="0 0 24 24">
  <path d="M19.234,9.964a6.832,6.832,0,0,0-7.018-6.459A7.039,7.039,0,0,0,5.619,8,6.586,6.586,0,0,0,0,14.175,6.475,6.475,0,0,0,6.626,20.5H18.542a5.332,5.332,0,0,0,5.328-5.337A5.409,5.409,0,0,0,19.234,9.964ZM18.661,14.8a1.162,1.162,0,0,1-1.632-.215l0-.019a1.1,1.1,0,0,1-.207-.531l-2.862-1.046L13,13.54l-.049.028.617,2.763a1.142,1.142,0,0,1,.683.412,1.163,1.163,0,1,1-1.838,1.427l-.014-.019,0,0a1.149,1.149,0,0,1,.224-1.608c.016-.012.034-.014.05-.025l-.56-2.459-1.681.97a.355.355,0,0,1-.534-.3V13.6L6.831,14.868a1.154,1.154,0,0,1-.429.93,1.177,1.177,0,1,1-1.451-1.853,1.162,1.162,0,0,1,1.529.1l3.412-1.41v-.82L7.949,11.4a1.16,1.16,0,1,1-1.7-1.547l.024-.019a1.164,1.164,0,0,1,1.637.206,1.117,1.117,0,0,1,.21.46l1.767.389V8.78a.32.32,0,0,1,.047-.186.352.352,0,0,1,.483-.12L13,9.959l2.568,1.485a.327.327,0,0,1,.129.129.35.35,0,0,1-.129.477l-.554.322,2.067.768a1.073,1.073,0,0,1,.163-.188l0,0A1.164,1.164,0,1,1,18.661,14.8Z"/>
</svg>