<svg width="34" height="34" viewBox="0 0 34 34" fill="none" xmlns="http://www.w3.org/2000/svg">
<g clip-path="url(#clip0)">
<path d="M15.8484 18.8888H9.86061C9.80733 18.8975 9.75279 18.894 9.70105 18.8786C9.64931 18.8633 9.6017 18.8364 9.56176 18.8001C9.52182 18.7638 9.49059 18.719 9.47038 18.6689C9.45018 18.6189 9.44152 18.5649 9.44506 18.5111C9.43433 18.4613 9.43433 18.4097 9.44506 18.3599L16.7362 0.339948C16.7557 0.281833 16.7906 0.230084 16.8372 0.190182C16.8837 0.150279 16.9402 0.123708 17.0006 0.113281H24.0839C24.1311 0.115697 24.1773 0.127394 24.2199 0.1477C24.2626 0.168006 24.3008 0.196522 24.3323 0.231616C24.3639 0.266709 24.3883 0.30769 24.404 0.35221C24.4197 0.39673 24.4265 0.443914 24.4239 0.491059C24.4409 0.565658 24.4409 0.643127 24.4239 0.717726L15.9617 14.8088H24.1973C24.2824 14.8114 24.3642 14.8426 24.4293 14.8975C24.4945 14.9523 24.5392 15.0276 24.5562 15.1111C24.5535 15.207 24.5204 15.2996 24.4617 15.3755L10.7862 33.4899C10.6539 33.5844 9.72839 34.5477 10.1817 33.0933L15.8484 18.8888Z" fill="url(#paint0_radial)"/>
<path d="M10.4778 24.7698L9.37073 25.88C9.27522 25.9757 9.14558 26.0296 9.01032 26.0298C8.87506 26.03 8.74526 25.9765 8.64948 25.881L0.423799 17.6782C0.235792 17.4907 0.129963 17.2362 0.129592 16.9707C0.129221 16.7052 0.23434 16.4504 0.421822 16.2624L1.5422 15.1389L10.4768 24.0486C10.5725 24.1441 10.6265 24.2737 10.6266 24.409C10.6268 24.5442 10.5733 24.674 10.4778 24.7698Z" fill="#50E6FF"/>
<path d="M9.18158 8.11748L10.2917 9.22452C10.3875 9.32003 10.4414 9.44967 10.4416 9.58493C10.4418 9.7202 10.3882 9.84999 10.2927 9.94577L1.51645 18.7466L0.406318 17.6395C0.218311 17.4521 0.112482 17.1976 0.112111 16.9321C0.111741 16.6666 0.216858 16.4118 0.404341 16.2238L8.48705 8.11845C8.58256 8.02267 8.7122 7.96876 8.84746 7.96857C8.98272 7.96838 9.11252 8.02193 9.2083 8.11744L9.18158 8.11748Z" fill="#1490DF"/>
<path d="M32.4716 15.1173L33.5786 16.2274C33.6743 16.3199 33.7507 16.4305 33.8031 16.5528C33.8556 16.6751 33.8832 16.8066 33.8843 16.9396C33.8853 17.0727 33.8598 17.2047 33.8093 17.3278C33.7588 17.4509 33.6842 17.5627 33.59 17.6566L25.3643 25.8594C25.2685 25.9549 25.1387 26.0084 25.0034 26.0082C24.8682 26.008 24.7385 25.9541 24.643 25.8583L23.536 24.7482C23.4405 24.6524 23.3869 24.5226 23.3871 24.3874C23.3873 24.2521 23.4412 24.1225 23.537 24.027L32.4716 15.1173Z" fill="#50E6FF"/>
<path d="M33.5829 17.6431L32.4728 18.7501L23.6965 9.94932C23.601 9.85354 23.5475 9.72374 23.5476 9.58848C23.5478 9.45322 23.6017 9.32358 23.6975 9.22807L24.8077 8.12103C24.9034 8.02552 25.0332 7.97197 25.1685 7.97216C25.3037 7.97235 25.4334 8.02626 25.5289 8.12204L33.5983 16.214C33.6911 16.3071 33.7647 16.4175 33.8148 16.5391C33.865 16.6606 33.8907 16.7908 33.8905 16.9223C33.8903 17.0537 33.8642 17.1839 33.8138 17.3053C33.7633 17.4267 33.6894 17.5369 33.5963 17.6298L33.5829 17.6431Z" fill="#1490DF"/>
</g>
<defs>
<radialGradient id="paint0_radial" cx="0" cy="0" r="1" gradientUnits="userSpaceOnUse" gradientTransform="translate(17.0548 16.7695) scale(11.7901 13.3076)">
<stop offset="0.2" stop-color="#FFD70F"/>
<stop offset="0.44" stop-color="#FFCB12"/>
<stop offset="0.87" stop-color="#FEAC19"/>
<stop offset="1" stop-color="#FEA11B"/>
</radialGradient>
<clipPath id="clip0">
<rect width="34" height="34" fill="white"/>
</clipPath>
</defs>
</svg>
