<svg width="34" height="34" viewBox="0 0 34 34" fill="none" xmlns="http://www.w3.org/2000/svg">
<g clip-path="url(#clip0)">
<path d="M34 19.9278C33.9704 18.0868 33.2874 16.3162 32.0729 14.9321C30.8585 13.5481 29.1916 12.6409 27.37 12.3723C27.3007 9.80707 26.2187 7.37361 24.3604 5.60385C22.5022 3.8341 20.0189 2.87199 17.4533 2.92784C15.3939 2.90676 13.3789 3.52618 11.6869 4.70041C9.9949 5.87464 8.70964 7.54565 8.00889 9.48228C5.80342 9.76997 3.77687 10.847 2.3044 12.5139C0.831938 14.1809 0.0132855 16.3248 0 18.549C0.0691945 21.0207 1.11664 23.3639 2.91226 25.0639C4.70788 26.7639 7.10485 27.6817 9.57667 27.6156H10.4078H25.9156C26.0539 27.6261 26.1928 27.6261 26.3311 27.6156C28.3576 27.5815 30.2913 26.76 31.7227 25.325C33.1541 23.8901 33.9708 21.9544 34 19.9278Z" fill="url(#paint0_linear)"/>
<path d="M9.89758 19.5688C10.6383 19.5688 11.2387 18.9684 11.2387 18.2277C11.2387 17.487 10.6383 16.8866 9.89758 16.8866C9.15691 16.8866 8.55647 17.487 8.55647 18.2277C8.55647 18.9684 9.15691 19.5688 9.89758 19.5688Z" fill="#E3E3E3"/>
<path d="M14.6202 18.7377V17.661H14.4691L13.3168 17.2833L13.0146 16.5466L13.6002 15.2999L12.8446 14.5444H12.6935L11.6168 15.111L10.8802 14.8088L10.408 13.5055H9.33128V13.6566L8.95351 14.8088L8.16017 15.111L6.9324 14.5255L6.17684 15.281V15.4322L6.72462 16.5088L6.4224 17.2455L5.10017 17.7177V18.8888H5.25128L6.40351 19.2666L6.70573 20.0033L6.12017 21.2499L6.87573 22.0055H7.02684L8.10351 21.4577L8.84017 21.7599L9.3124 23.0633H10.3891V22.9122L10.7668 21.7599L11.5035 21.4577L12.7502 22.0433L13.5057 21.2877V21.1366L12.958 20.0599L13.2602 19.3233L14.6202 18.7377ZM9.89795 20.3055C9.48701 20.3055 9.08529 20.1836 8.7436 19.9553C8.40191 19.727 8.1356 19.4025 7.97834 19.0228C7.82107 18.6432 7.77993 18.2254 7.8601 17.8224C7.94027 17.4193 8.13816 17.0491 8.42874 16.7585C8.71932 16.4679 9.08955 16.27 9.4926 16.1899C9.89565 16.1097 10.3134 16.1508 10.6931 16.3081C11.0727 16.4654 11.3973 16.7317 11.6256 17.0734C11.8539 17.4151 11.9757 17.8168 11.9757 18.2277C11.9783 18.5013 11.9262 18.7726 11.8227 19.0258C11.7192 19.279 11.5662 19.5091 11.3728 19.7025C11.1793 19.896 10.9493 20.0489 10.6961 20.1525C10.4428 20.256 10.1715 20.308 9.89795 20.3055V20.3055Z" fill="white"/>
<path d="M18.889 14.0344C19.7653 14.0344 20.4757 13.324 20.4757 12.4478C20.4757 11.5715 19.7653 10.8611 18.889 10.8611C18.0127 10.8611 17.3024 11.5715 17.3024 12.4478C17.3024 13.324 18.0127 14.0344 18.889 14.0344Z" fill="#E3E3E3"/>
<path d="M24.5556 13.0522V11.7678H24.3856L22.9878 11.3333L22.6667 10.37L23.3656 8.85887L22.4589 7.9522H22.2889L20.9856 8.61331L20.1167 8.25442L19.55 6.68665H18.2089V6.87553L17.7556 8.25442L16.8678 8.61331L15.3945 7.91442L14.4878 8.82109L14.5822 8.99109L15.1111 10.3889L14.8089 11.3333L13.2222 11.8433V13.2222H13.4111L14.79 13.6755L15.1111 14.5255L14.4122 16.0366L15.3567 17L15.5456 16.9055L16.83 16.2444L17.7178 16.6033L18.2845 18.1711H19.5689V17.9822L20.0222 16.6033L20.91 16.2444L22.4022 16.9433L23.3089 16.0366L23.2145 15.8666L22.6667 14.5066L23.0256 13.6189L24.5556 13.0522ZM18.8889 14.9411C18.3958 14.9411 17.9137 14.7949 17.5037 14.5209C17.0936 14.2469 16.7741 13.8575 16.5854 13.4019C16.3966 12.9463 16.3473 12.445 16.4435 11.9613C16.5397 11.4777 16.7771 11.0334 17.1258 10.6847C17.4745 10.336 17.9188 10.0985 18.4025 10.0023C18.8861 9.90613 19.3875 9.9555 19.8431 10.1442C20.2987 10.3329 20.6881 10.6525 20.962 11.0625C21.236 11.4726 21.3822 11.9546 21.3822 12.4478C21.3847 12.7759 21.322 13.1012 21.1976 13.4049C21.0731 13.7085 20.8896 13.9844 20.6576 14.2164C20.4255 14.4484 20.1497 14.632 19.846 14.7564C19.5424 14.8808 19.217 14.9436 18.8889 14.9411V14.9411Z" fill="white"/>
</g>
<defs>
<linearGradient id="paint0_linear" x1="16.9811" y1="31.3745" x2="16.9811" y2="-2.39883" gradientUnits="userSpaceOnUse">
<stop stop-color="#0078D4"/>
<stop offset="0.16" stop-color="#1380DA"/>
<stop offset="0.53" stop-color="#3C91E5"/>
<stop offset="0.82" stop-color="#559CEC"/>
<stop offset="1" stop-color="#5EA0EF"/>
</linearGradient>
<clipPath id="clip0">
<rect width="34" height="34" fill="white"/>
</clipPath>
</defs>
</svg>
