<svg width="34" height="34" viewBox="0 0 34 34" fill="none" xmlns="http://www.w3.org/2000/svg">
<path d="M10.1244 24.1208V12.0508H8.14111V24.1208V25.2352V26.1041H23.8944V24.1208H10.1244Z" fill="#949494"/>
<path d="M8.27368 18.5489L2.30479 24.5556C2.11443 24.7498 2.00781 25.0109 2.00781 25.2828C2.00781 25.5547 2.11443 25.8158 2.30479 26.01L8.27368 31.9223C8.46787 32.1126 8.72897 32.2192 9.0009 32.2192C9.27283 32.2192 9.53392 32.1126 9.72812 31.9223L15.697 25.9534C15.8874 25.7592 15.994 25.4981 15.994 25.2261C15.994 24.9542 15.8874 24.6931 15.697 24.4989L9.72812 18.5489C9.53392 18.3586 9.27283 18.252 9.0009 18.252C8.72897 18.252 8.46787 18.3586 8.27368 18.5489Z" fill="url(#paint0_linear)"/>
<path d="M14.1475 11.0313V3.02244C14.1486 2.76752 14.0542 2.52142 13.8829 2.33263C13.7116 2.14384 13.4758 2.02604 13.222 2.00244H5.11863C4.84811 2.00244 4.58867 2.10991 4.39738 2.30119C4.2061 2.49248 4.09863 2.75192 4.09863 3.02244V11.0313C4.09863 11.3019 4.2061 11.5613 4.39738 11.7526C4.58867 11.9439 4.84811 12.0513 5.11863 12.0513H13.222C13.4758 12.0277 13.7116 11.9099 13.8829 11.7211C14.0542 11.5324 14.1486 11.2863 14.1475 11.0313Z" fill="url(#paint1_linear)"/>
<path d="M22.1758 21.1177V29.1077C22.1758 29.3782 22.2832 29.6376 22.4745 29.8289C22.6658 30.0202 22.9253 30.1277 23.1958 30.1277H31.2047C31.4752 30.1277 31.7346 30.0202 31.9259 29.8289C32.1172 29.6376 32.2247 29.3782 32.2247 29.1077V21.1177C32.2247 20.8471 32.1172 20.5877 31.9259 20.3964C31.7346 20.2051 31.4752 20.0977 31.2047 20.0977H23.1958C22.9253 20.0977 22.6658 20.2051 22.4745 20.3964C22.2832 20.5877 22.1758 20.8471 22.1758 21.1177Z" fill="url(#paint2_linear)"/>
<defs>
<linearGradient id="paint0_linear" x1="8.99145" y1="18.2467" x2="8.99145" y2="32.2245" gradientUnits="userSpaceOnUse">
<stop stop-color="#008BF1"/>
<stop offset="0.22" stop-color="#0086EC"/>
<stop offset="0.49" stop-color="#0078DD"/>
<stop offset="0.79" stop-color="#0061C4"/>
<stop offset="1" stop-color="#004DAE"/>
</linearGradient>
<linearGradient id="paint1_linear" x1="9.12308" y1="2.00244" x2="9.12308" y2="12.0513" gradientUnits="userSpaceOnUse">
<stop stop-color="#76BC2D"/>
<stop offset="0.32" stop-color="#73B82C"/>
<stop offset="0.65" stop-color="#6CAB29"/>
<stop offset="0.99" stop-color="#5E9724"/>
<stop offset="1" stop-color="#5E9624"/>
</linearGradient>
<linearGradient id="paint2_linear" x1="166.88" y1="126.817" x2="166.88" y2="180.076" gradientUnits="userSpaceOnUse">
<stop stop-color="#76BC2D"/>
<stop offset="0.32" stop-color="#73B82C"/>
<stop offset="0.65" stop-color="#6CAB29"/>
<stop offset="0.99" stop-color="#5E9724"/>
<stop offset="1" stop-color="#5E9624"/>
</linearGradient>
</defs>
</svg>
